<?xml version="1.0" encoding="UTF-8"?>
<!-- Created with Inkscape (http://www.inkscape.org/) -->
<svg width="512" height="512" version="1.1" viewBox="0 0 512 512" xmlns="http://www.w3.org/2000/svg">
 <g transform="translate(-.85052 -.0935)">
  <g transform="matrix(.096 0 0 .096 .76887 .084524)">
   <g fill-rule="evenodd">
    <path transform="matrix(.13333 0 0 -.13333 0 5334.7)" d="m40006 40009h-4e4v-4e4h4e4v4e4" fill="#2a7fff"/>
    <path transform="matrix(.13333 0 0 -.13333 0 5334.7)" d="m14771 28607c-286.5-245.7-716.2-833.2-1106.6-1720.6v0.1s-2483.4-2857.5-1703.4-3690.3c227.4-242.9 418.2-323.7 587.8-304.7-298.5-598.6-442.3-1163-160.8-1463.6 51.2-54.7 100.4-100.9 148.1-139.8-582.6-865.9-1125-1919.1-700.4-2372.5 222.5-237.5 410-320.1 576.8-305.8-252.3-546.7-1973.6-967.1-1636.7-1326.8s706.6-347.8 970.3-91.3l8.9-53.9c-389.6-694.2-596-1422.9-304.5-1734.2 291.5-311.2 471.1-343.1 658-290.9 273.1-1520.9-1115.1-1715.6-856.3-3333.5-179-321.5-227.2-650.5-111.6-851.2 115.7-200.7 196.8-282.5 295.9-350.2l41.9-290.9c-326.4-442.46-432.1-991.58-324.7-1178 107.5-186.44 74.9-121.14 112.4-169.85-764.3-710.39-1458.6-1740.4-1222.3-2150.5 236.4-410.07 326.4-405.06 492-429.16-370.2-474.84-660.81-808.66-394.7-1270.3 266.1-461.59 690-483.33 1049.6-226.72-601.6-625.73-1499.4-3298.8-1187.3-3840.3 185.3-321.45-71.17-766.16-228.62-1012.2h20184c-56.4 251.73-114.5 506.27-174.5 763.92 38.7 49.766-5.5-36.531 115.9 174.34 121.6 210.87-59.8 867.89-482.5 1379.9l-50.7 212.73c258.5-100.83 542.2 9.19 762.3 391.11 220.1 381.96-24.6 795.4-394.7 1270.2 165.6 24.06 255.6 19.09 492 429.17 236.2 410.06-458.2 1440.3-1222.4 2150.6 37.4 48.87-9.2-41 112.4 169.88 121.4 210.88-62.7 873.65-489.8 1388.5 169.3 20.24 262.1 12.65 502.9 430.59 240.8 417.88-485.5 1471.9-1262.5 2187.7-2.2 1298 146.5 2531.1 337.1 3750.8 336.6-372 755.8-539.6 1162.4-56.8 406.4 482.8-1920.3 2222.9-2402.3 2944.7 308.8-316 729.9-369.2 1073.3 38.5 343.1 407.6 115.6 787.4-165 1319.9 167.2-5.4 255-26.2 559.6 335.8 304.9 362.1-197.2 1498.3-824.7 2332 45.5 41.5-16.4-38.6 140.4 147.6 156.9 186.1 91.7 871.1-238.1 1453.1 170.5-10 118.7-202.2 571.1 335.3 452.2 537.4-1591.7 3274-1868.8 3566.3-500.4 905.3-1235 1490-2263.9 1518.9l-5572.3 157.4-3604.8-195" fill="#fef3d8"/>
    <path transform="matrix(.13333 0 0 -.13333 0 5334.7)" d="m12109 15112 3.7-22.5-2.2 23zm1270.7-15102h-3604.5c157.42 245.93 413.87 690.69 228.67 1012.3-312.13 541.43 585.7 3214.5 1187.4 3840.4-359.7-256.91-783.5-235.09-1049.7 226.61-266.01 461.72 24.5 795.51 394.8 1270.3-165.9 24.16-255.9 19.15-492.1 429.14-236.34 410.08 458 1440.3 1222.2 2150.6-37.4 48.6-4.8-16.69-112.2 169.91-107.5 186.47-1.6 735.43 324.6 1177.9l-41.9 290.9c-99.1 67.7-180.2 149.4-296.1 350.2-115.6 200.8-67.1 529.7 111.9 851.2-236.1 1474.9 896.8 1767.3 891.7 2959.7 109.5-1239.8 1704.7-3719.7 1540.4-6020.1-164.2-2300.4-268.2-3127.3-268.2-5092.9 0-846.49 116-2256.4-37-3616.1" fill="#fffcec"/>
    <path transform="matrix(.13333 0 0 -.13333 0 5334.7)" d="m29959 9.4492c-56.4 251.73-114.8 506.34-174.5 763.92 39 49.86-5.5-36.699 115.9 174.34 121.6 210.87-59.8 867.72-482.5 1379.8l-50.7 212.66c258.5-100.78 542.2 9.35 762.3 391.16 219.8 382.07-24.6 795.51-394.7 1270.5 165.6 23.81 255.6 18.9 492 428.98 236.2 410.22-458.2 1440.4-1222.4 2150.4 37.7 48.96-9.2-40.85 112.4 170.08 121.4 210.8-62.7 873.65-489.8 1388.6 169.3 20.13 262.1 12.38 502.9 430.32 240.8 418.15-485.2 1472.2-1262.8 2187.9-1.9 1298.1 146.5 2531.1 337.4 3750.8 336.6-372 755.8-539.6 1162.1-56.8 285.3 338.6-773.7 1295.5-1598.2 2085.9l-1470.3-4897.2-178.8-2326s2057.4-3712.7 1520.9-5501.8c-579.6-1931.8-889.7-3152.6-1029.6-4003.5h3348.4" fill="#f5daae"/>
   </g>
   <path transform="matrix(.13333 0 0 -.13333 0 5334.7)" d="m14844 28432c-136.1-127.9-304-333.9-484.5-614.2-173-269.2-355.8-605.1-531.1-1003.7l-105.9 22.2 77.3-66.7c-6.7-7.9-2377.5-2737.1-1708.4-3451.3 98.6-105.2 186.3-174 264.6-212.7 64.6-32 122-42.7 173.5-36.9l326 35.7-146.3-293c-141.6-283.9-246.3-557.1-281-789.6-30.2-201.1-8.2-366.8 90.2-471.8 23.1-24.6 45.7-47.6 67.7-68.2 22.9-21.5 44-40.2 62.9-55.6l126.5-102.8-90.9-134.7c-319.1-474.3-625.3-1004.3-756.8-1449.4-89.3-303.1-96.6-557.5 38-701.8 96.5-102.3 182.9-170.4 260.7-210 63.9-32.4 120.6-44.1 171.7-39.8l305.6 25.5-128.7-278.5c-143.8-311.5-613.6-555-1040.2-775.9-248.3-128.7-480.7-249-588.5-349.8-14-13.8-52.6 9.6-40.1-3.9l15.9-16.7c130-133.1 259.5-197.4 377.7-204.2 111.7-6.2 220 39.5 313.4 126.9l254.7 242.8 63.4-387.5-20.1-116.1c-197.9-352.4-345.9-711.8-398.6-1011.7-40.1-228.5-25.1-412.9 68.2-512.7 125.5-134.7 221.9-206.9 302.6-237.9 61.8-23.8 118.7-20.1 177.7-3.7l188.5 52.6 34.5-193.1c147.6-821.4-143.2-1278.7-440-1745.1-264.9-416.5-535.5-841.7-415.4-1591.6l-20.2-114.7c-79.4-142.7-129.4-285-146.1-411.5-14-107.6-4.1-200.1 32.8-264.3 51.4-88.9 94.2-150.5 134-196.3 35.3-40.4 70-69.1 108.2-95.3l65-44.3 53.1-368.9-32.9-130.6c-139.5-189.17-234.8-399.53-286.3-586.65-51.9-188.02-61.8-337.97-27.7-397.05 62.3-108.16 56.3-102.67 58.7-104.91 9.1-8.41 19.6-18.11 40.1-44.68l99.9-128.84-119.4-110.94c-394.7-366.7-769.3-820-997.7-1221.8-178.3-313.94-266.3-579.75-191.7-709.4 181.9-315.61 241.8-324.06 340.2-337.87l327.9-46.88-238.9-305.35c-303.4-387.55-526-672.15-331.8-1009.3 14.4-24.93 30.7-50.07 48.1-74.54 92.8-129.93 201.3-200.19 312.9-219.99 114.6-20.37 239.1 9.12 359.7 78.47 24.2 14.34 48.1 29.75 71 46.12l232.1-269.11c-294.1-305.95-671-1155.7-925.2-1978.2-228.4-739.03-359.2-1436.4-236.2-1649.6 211.7-367.61 0.2-813.55-173.1-1101.1h-422.66l22.5 34.691c128.43 197.3 411.86 632.59 264.25 888.77-176.56 306.38-49.5 1111.5 204.11 1932.1 184.8 597.67 436.7 1215.1 684 1653.9-47.6-0.44-95 3.41-142 11.75-201.8 35.78-390.4 152.79-542.1 365.22-22 30.9-44.2 65.59-66.36 103.99-283.15 491.36-79.23 836.06 248.36 1262.9-96.8 62.56-200.2 183.96-345.75 436.45-146.16 253.78-48.11 643.3 190.35 1062.9 224.2 394.48 575.6 831.76 952.9 1200.6l-33.3 57.08c-79.8 138.71-83.5 391.29-7.1 668.99 56.5 205.59 156.1 433.1 299.4 642.7l-21.3 147.1c-36.7 29.8-72.6 64-109.6 106.5-54.3 62.3-110.2 142.3-174.6 253.8-77.5 134.6-101.5 304.2-77.5 487.9 20.2 153.6 74.4 320 158.8 484.2-118.1 844.6 181.9 1316.7 476.1 1779 236.9 372.4 469.6 738.4 412.7 1323.2-64 1.7-130.4 14.3-201.6 41.8-128.4 49.6-268.1 149.6-433.8 326.4-179.7 191.4-219.6 481.9-160.5 818.5 39.5 225.2 123.9 475.6 239 730.7-39.2-4.2-78.9-5.2-119.1-3-206 11.7-418.4 110.5-615.5 313.2l-18.2 18.8c-166.5 177.7-120.1 344.6 55.3 508.9 146.6 136.5 399.3 267.4 669.3 407.4 260.2 134.7 538.5 279 715.3 421.8l-22.3 10.9c-113.2 57.5-232.2 149.9-358.4 284.4-236.2 253-244.8 625.8-120.6 1046.6 131.2 444.2 413.4 953.4 717.8 1419.1l-44.9 46.5c-182.9 195.2-229.8 462.5-183.8 768.8 31.5 209 106.8 438.2 210.2 674.3-28.7 10.2-57.5 22.5-86.7 36.9-116.1 57.5-238 150.9-366.7 288.2-848.5 906 1453 3642.5 1680.7 3908.6 179.6 405.2 367.9 749.7 547.1 1028.4 219.7 341.7 429.3 588.3 596.3 731.7l106.9 42.6c3359 181.9 5763.2 134.4 9191.2 37.9 530.8-15 989.5-168.5 1382.5-432.3 413.7-277.6 751.9-675.5 1022.7-1160.5 214.4-239.3 1089.5-1400.7 1591.1-2357.9 320.4-611.7 489.3-1164.4 267.5-1427.6-195.8-232.5-322.1-352.3-416.4-407.6 89.2-210.4 148.9-422.9 180-614.3 55.3-337.3 19.3-629.1-96.3-766.5l-43.1-50.3c307.1-430.2 576.6-922.2 727.4-1349 160.9-455.1 188.7-855.9 0-1080.1-187.6-223-310.7-324.2-416.7-368.7 247.3-477.9 387.2-852.9 22.3-1286.8-26.4-32.2-55.1-63-84.5-91.8-160.1-156.2-334.4-238.3-510.6-258.1 154.9-154.3 331.1-322.3 512.2-495 841.4-802 1782-1698.5 1411.4-2138.7-41.7-49.6-84.3-93.7-126.8-132.4-196.1-177.4-397.9-242.6-596.8-227.1-157.9 12.4-308.4 77.3-448.6 177.4-74.5-498.6-140.2-1000.5-189.8-1509.2-57.8-593-93.6-1194.9-95.5-1810.1 406.4-383.9 794.5-854.5 1038.6-1277.5 245.4-424.94 348.5-819.81 200.4-1077-150.5-261.11-257.1-383.95-357.5-445.53 134.2-200.13 236.4-409.54 304.4-601.79 113.7-322.42 129.5-616.1 40-771.72l-33.5-57.19c377.5-368.77 728.7-805.96 952.9-1200.3 238.7-419.77 336.6-809.07 190.7-1063-147.9-255.96-252-377.13-349.9-438.99 124.3-174.25 226.1-342.77 288.8-508.43 98.4-259.17 103.9-507.91-36.6-752.06-124.1-215.5-270.8-359.82-426.2-439.61-71.5-36.6-144.3-59.9-217.1-70.32 170.7-230.58 298.1-480.74 377.1-707.19 111.9-320.28 126.9-611.77 37.1-767.19-33.2-57.485-57.8-98.297-76.9-127.81l109.4-478.67 54.5-242.25h-366l-36.5 164.02-147.8 642.89 52.1 66.809c30 38.602 49.6 51.203 66.2 61.375 16.4 10.59-25.6-15.418 36.3 91.851 38.5 67.48 13.1 246.75-65.5 471.48-78.8 225.88-214.3 480.64-400.3 705.71l-36.6 72.6-129.5 543.9 317.2-123.61c86.4-33.54 177.2-30.79 264.2 13.73 95.8 49.23 191.5 147.03 279.3 299.78 79.4 137.93 72.8 287.33 11.5 448.79-72.3 190.23-217.1 398.54-391.9 623.19l-189.9 243.53 327.6 46.14c98.2 13.69 158.2 22.04 340.4 337.89 74.4 129.63-13.4 395.52-192 709.33-228.3 401.79-603.1 855.01-997.7 1221.6l-119.2 110.64 99.6 129.14c34.1 44.4 56.1 56.59 75 66.52 21.2 11.97-34.1-18 24 83.29 38.7 66.71 12.2 247.86-67.9 475.18-80.5 228.26-217.4 484.68-405 710.69l-210.6 254 350.2 39.84c100.4 11.54 161.7 18.58 346.4 339.23 76.3 132.19-15.9 402.91-200.2 722.04-237 410.7-625.4 874.28-1028.8 1245.8l-57.2 52.6v78.7c-1.1 655.7 35.7 1294.1 96.8 1921.6 61.1 625.9 146.4 1242.8 242.4 1856.5l57.9 369.2 250.3-277c44.2-49 89.8-93.7 136.4-132.7 109.1-92 222.8-152.5 334.6-161.3 103.9-8.1 214.7 30.8 329.8 134.8 30.5 27.8 61.9 60.3 93.2 97.6 154.4 183.3-658.1 958-1384.9 1650.7-437.5 417.1-847 807.5-1029.1 1080.1l276.1 223.6c19.5-19.8 40.4-39.2 62-57.5 106.3-89.8 223.3-140.8 338.9-140.9 113.5 0 232.6 50.2 347.5 162.2 19.1 18.8 39.5 40.6 60 65 250.6 297 81.5 616.5-148.9 1051.8l-181.7 343.1 330.6-12.1c99.8-3.8 160.6-6 395.2 272.9 96.2 114.3 56.1 391.4-64.4 732-154.4 436.8-443.2 948.7-766.7 1378.4l-97.3 129.4 119.7 109.5c42.8 39.1 67.4 47.1 88.1 53.5 18.5 6.2-36.6-9.8 36.3 76.6 49.6 59.1 55.9 242 16.9 479.8-39 238.6-129 515.2-273.8 770.6l-161.6 285.1 326.6-18.8c69.8-4 112.6-22.2 150.2-38.1 6.3-2.7 10.1-4.3 274.4 309.8 106.4 126.4-53.2 541.9-310.6 1033.4-500.4 954.9-1378 2113-1551 2295.4l-27.2 37c-246 445.3-549.9 807.5-918.2 1054.8-338.4 226.9-734.4 358.9-1193.9 371.8l-5563.1 157.1-3536.6-191.2" fill="#100f0d"/>
   <path transform="matrix(.13333 0 0 -.13333 0 5334.7)" d="m16956 29890s-1535.7 555.6-1866.2 1650.6c-330.5 1094.8-854.7 1875.1-1555.3 1237.9-700.5-636.8-1779.1-2417.7-1232-3936 547-1518.6 2971.4-1762.1 2971.4-1762.1l1377.1 1115.4 305 1694.2" fill="#df9845" fill-rule="evenodd"/>
   <path transform="matrix(.13333 0 0 -.13333 0 5334.7)" d="m16786 29795c-377.8 160.1-1546.5 725.4-1841.3 1701.3-148.4 492.8-335.2 915.8-556.2 1159.1-76.7 84.5-156.7 145.6-238.5 176.7-73.7 28.1-152.3 31.9-235.5 7.1-86.2-26.2-179.3-82.4-278.8-172.9-390.6-355.1-904.2-1082.2-1165.7-1917.9-187.5-599.4-243.6-1252.1-26.1-1855.9 465.4-1291.9 2412.7-1606.9 2784.6-1655.6l1283.9 1040zm-1552 1788.6c308.9-1022.5 1769.2-1551.1 1773.4-1552.7l119.3-43.7-327.7-1818.5-53.1-90.3-1426.8-1155.9-62.1 7c-7.1 0.8-2517.1 252.5-3096.6 1861.3-242.8 674.2-183.5 1392.5 21.5 2047.4 278.6 890.4 830.3 1668.8 1250.7 2051.5 134.7 122.4 266.6 200.2 394.6 238.9 151.1 45 294.5 37.6 430.3-14.2 127.8-48.5 245.9-136.6 354.2-255.8 254.1-279.6 461.7-743.2 622.3-1275" fill="#100f0d"/>
   <path transform="matrix(.13333 0 0 -.13333 0 5334.7)" d="m16091 29496s-1014.4 159.5-1349.3 795.8c-334.8 636.3-751.6 1055.2-1107.9 578.2-356.3-476.8-809.2-1704.9-290.1-2576.8 519.1-872.2 2044.8-732.6 2044.8-732.6l716.7 853.1-14.2 1082.3" fill="#af5a1e" fill-rule="evenodd"/>
   <path transform="matrix(.13333 0 0 -.13333 0 5334.7)" d="m23241 29675s1570 449.7 1974.4 1519.4c404.2 1069.9 980.4 1812.5 1636 1129.3 655.4-683.1 1610.3-2533.4 960.9-4011-649-1477.8-3084.4-1555.5-3084.4-1555.5l-1298 1206.6-188.9 1711.2" fill="#df9845" fill-rule="evenodd"/>
   <path transform="matrix(.13333 0 0 -.13333 0 5334.7)" d="m23201 29820c4.3 1.1 1496.3 428.5 1874 1427.2 196.4 520.1 435.2 968.8 707.9 1230.3 115.8 111 239.7 190.7 371 230.8 139.1 42.2 282.5 40.1 429.2-15.3 125.6-47.5 251.7-133.9 377.5-264.8 393.4-410.2 890.9-1224.6 1108.2-2132 159.8-667.6 170.2-1388.7-117.8-2044.1-687.3-1565.3-3209.9-1645.5-3217.1-1645.8l-62.5-2.3-1343.6 1249.1-47.2 94.1-203 1837.9zm2156.3 1321.1c-360.3-952.9-1562.9-1437.5-1952.2-1572l169.3-1533 1210.5-1125.5c373.3 23 2337.3 203.9 2889.8 1462 258.6 588.3 247.4 1243.4 101.2 1854.1-204 850.9-667 1611.3-1032.7 1992.3-93.5 97.6-182.4 160.1-266.3 191.7-81.6 30.8-160.2 32.2-235.6 9.3-83.1-25.4-166.7-80.5-249.3-159.8-237.6-227.8-452.9-637.7-634.7-1119.1" fill="#100f0d"/>
   <path transform="matrix(.13333 0 0 -.13333 0 5334.7)" d="m24077 29224s1022.9 89.7 1400.4 701.7c377.4 612 821.8 1001.8 1144.7 501.8 323-500.2 691.2-1756.4 113.9-2590.9-577.3-834.6-2089.9-591.5-2089.9-591.5l-656.9 900.2 87.8 1078.7" fill="#af5a1e" fill-rule="evenodd"/>
   <path transform="matrix(.13333 0 0 -.13333 0 5334.7)" d="m20114 19882c1940.6-78.3 3479.1-1011.7 3403.1-2922.7-75.9-1911.1-1737.6-4076.3-3678.1-3998-1940.6 78.4-3425.1 2370.7-3349.1 4281.8 75.9 1911.1 1683.6 2717.3 3624.1 2638.9" fill="#df9845" fill-rule="evenodd"/>
   <path transform="matrix(.13333 0 0 -.13333 0 5334.7)" d="m14546 21070c78.6 220 202.8 393.5 354.7 523 168.2 143.4 370.3 232.7 581.9 271.8 98.1 18 199.2 25.1 300.3 21.6 102-3.4 203.6-17.7 302-42.2 100.2-24.9 197.9-60.7 290-106.6 90.6-45.2 176.3-100.4 254-164.9 153.7-127.4 277.6-290.7 352.8-486.2 67.5-175.8 95.2-376.9 70-600.3 3.6-74.3-49.4-133.5-118.8-162.5-30.9-12.7-65.8-20-99.8-19.6-37.4 0.5-74.9 9.6-106.8 29.6-58.8 36.9-97.1 103.6-84.2 208 18 152.7 0.4 288.1-43.5 404.5-47.7 126.5-127 231.8-225.6 313.5-52.5 43.4-110.7 80.8-172.5 111.5-63.4 31.5-131.2 56.3-201 73.6-70.7 17.6-143.4 27.8-215.7 30.3-71.2 2.5-143.5-2.9-214.3-15.8-144.5-26.6-281.9-87.2-395.6-184.2-103.5-88.1-188.3-207.1-241.7-358.8l-1.4-3.8c-48.8-117-134.3-176.4-212.5-187-35.2-4.7-69.6-0.1-100.3 13.3-32.3 14-60.2 37.3-79.7 69-37.5 60.5-44.8 151.4 7.7 262.2zm11012 297.8c152-140.1 276.3-322.3 354.8-547.8 52.4-114.4 45.2-205 7.5-262.8-19.8-30.2-47.4-51.6-79.6-63.4-30.7-11.2-65-13.3-100-6.3-78.5 16.1-164 81.5-212.7 201.9l-1.5 3.9c-53.5 155.5-138.1 280.3-241.6 375.7-113.8 104.8-251.2 175.1-395.7 211.8-70.8 17.8-143 28.2-214.2 30.7-72.3 2.5-145.1-2.7-215.8-15.2-69.7-12.6-137.6-32.6-201-59.8-61.8-26.2-120-59.6-172.4-99.3-98.6-74.8-177.9-174.6-225.6-297.8-44-113.4-61.5-247.6-43.6-401.5 13-105.3-25.2-169.4-84.1-202-31.8-17.8-69.4-24.4-106.8-22.2-34.1 1.9-68.9 11.6-99.5 26.5-69.8 33.8-122.8 96.8-119.2 170.8-25.3 225.2 2.5 424.3 70 595.4 75.2 190.2 199.2 344.9 352.8 461.7 77.8 58.9 163.5 108.3 254.1 147.1 92.1 39.4 189.7 68.5 290 86.4 98.1 17.6 200 24.8 301.8 21.1 101.3-3.6 202.4-17.6 300.5-42.5 211.6-53.8 413.7-157.3 581.8-312.4" fill="#100f0d"/>
   <g fill-rule="evenodd">
    <path transform="matrix(.13333 0 0 -.13333 0 5334.7)" d="m14954 19891c494.6-17.3 895.5-319.1 895.5-674.3 0-355.1-400.9-629-895.5-611.8-494.6 17.3-895.5 319.1-895.5 674.3s400.9 629 895.5 611.8zm10273-358.3c494.6-17.2 895.5-319.1 895.5-674.3 0-355.1-400.9-629-895.5-611.7-494.6 17.2-895.5 319.1-895.5 674.3 0 355.1 400.9 629 895.5 611.7" fill="#fbcbbb"/>
    <path transform="matrix(.13333 0 0 -.13333 0 5334.7)" d="m18619 17929c-477.6-797.4 1166.4-866.9 1340.6-1006.6-117.9-1269.5-1066.5-1107.5-2059.8-828.2 202.1-239.4 455.5-405.6 721.2-490.3 254.2-81.3 521.1-88.5 767-15.1 247.7 73.9 472.4 228.4 639.6 469.7 50.6 73 95.8 154 135 243.2 39.2-91.8 84.3-176.1 134.9-252.6 167.2-253 392-423.2 639.6-514.3 245.9-90.6 512.7-101.9 767-38.5 265.8 66.3 519.1 214.8 721.2 440.2-989.1-209.2-1933.8-305-2058.2 955.6 524.7 200.3 1883.5 530.8 1105.1 987-348.3 204.2-987.1-779-1308.6-760.4-423.5 24.3-1345.4 1143.1-1544.6 810.3" fill="#100f0d"/>
    <path transform="matrix(.13333 0 0 -.13333 0 5334.7)" d="m10723 26893c-1784.6 2482.2 2240.1 3213.4 2917.5 2520.7-113.8 759.5 1511.8 1477.4 1970-145.7-307.6 1938.6 2471.1 3026.6 3995.4 779.5 61.2 3288.9 4065 1410.6 3066.2-426.5 706 1738.1 3301 416.7 2623.6-397.7 0 0 2098.5 547.9 2235.4-715.1 0 0 3576.1 359.7 2360.5-1571.5l-432.8-340.4c365.8-508.8 1000.4-1693-410.2-2354-1831.2-857.8-2507.3-166.9-2507.3-166.9s-1625.5-1566.6-2755.7 923.4c-90.6-1594.3-1187.2-2286.3-1995.2-2300.5-1481.3-26.3-2126.2 791.4-3054.2 1776.1-1185.5-3817.1-3329.5-246.1-3479.7-121-369.5-292.7-827.9-1349.5-1608.4-1349.5-780.6 0-1812.1 720.1-1725.5 1608.1 11.4 117.5 37.7 232.1 76.5 342.6-969 3.8-2585.8 204.6-1708.9 1598l432.8 340.4" fill="#fef3d8"/>
    <path transform="matrix(.13333 0 0 -.13333 0 5334.7)" d="m10381 27509c-757.45 1983.9 2642 2536.1 3259.7 1904.5-104.3 696.8 1254.6 1357.9 1833.9 210-1487.8-383.7-2670.7-1190.8-3268.3-1677-281.5-229.1-978.2-362.8-1825.3-437.5zm5209 2143.1c87.6 1687.2 2596 2488.7 4016.1 394.9 61.2 3289.2 4065 1410.9 3066.2-426.2 706.1 1738.1 3301 416.7 2623.7-397.7 0 0 2098.4 547.9 2235.3-715.1 0 0 3404.8 342.3 2439.4-1436-1107.6 251-2791.2-35.5-4055 798.6-1799.6 1187.5-1274.1 1596.6-3063.3 1328.5-1789.3-268.4-1789.3 626.2-2594.4 626.2s1166.8-878.7-1695.9-162.8c-1057.7 264.3-2068.5 206.7-2972.1-10.4" fill="#fffcf4"/>
    <path transform="matrix(.13333 0 0 -.13333 0 5334.7)" d="m23243 26031c1789.3-268.3 2372.1-1774.8 4171.8-587.2 996.6 657.8 1914.9 1206.3 2642 1807.9-40.1-97.6-94.1-202-164.8-314.7l-432.8-340.4c365.8-508.6 1000.4-1693-410.4-2353.9-1831-857.9-2507.1-166.8-2507.1-166.8s-1625.5-1566.7-2755.7 923.2c-90.6-1594.2-1187.2-2286.2-1995.2-2300.5-1308-23.2-1963.7 611.5-2738.1 1438.4 2447.2 1022.5 4190.3 1894 4190.3 1894zm-4705-2106.9c-637.7-1523-1474.2-1355.9-2143.9-838.9 746.5 277.8 1467.6 561.9 2143.9 838.9" fill="#f5daae"/>
   </g>
   <path transform="matrix(.13333 0 0 -.13333 0 5334.7)" d="m10482 26931c-427.7 656.5-471.5 1205.5-286.5 1647.4 118.6 282.8 329.7 516 592.9 701.2 253.7 178.6 557.5 313.6 872.4 406.1 664.3 195.2 1394.1 197.4 1830.6 25.9 62.8 197.4 206.7 374.4 395.9 502.9 132.2 89.7 286.5 156.3 449 188.7 164.5 33 340.4 31.9 513.3-13.6 218.9-57.6 430.7-185.5 606.8-404.8 63.2 274.7 187.4 522.1 357.4 732.9 230.4 286.1 544 504.5 902.4 632.7 356.5 127.1 757.5 166.9 1164.7 96.8 547.5-94.1 1107.4-385.6 1585.4-927.3 112.9 745.2 460.9 1178 898.9 1377.1 358.9 163.1 774.2 163.9 1167 48.2 384.5-112.9 750.3-338.7 1020.3-632.7 248.1-270 417.6-596.7 452.8-947.7 302.6 228.8 670.2 307.9 1032.4 286.1 290.7-17.5 577.2-101.8 820.4-225.3 248.8-126.6 457.2-297.6 584.7-484.7 104.5-153.2 158.2-315.8 144.2-476.7 608.7 97.4 1855.6 174 2091.3-765.3 731.2 45.8 3601.7 109.1 2364.6-1856.6l-40.4-45.5-301.9-237.6c68.4-106 139.6-228.8 202.4-362.8 130-278 224.7-604.7 191.4-935.2-34.1-341.1-199.9-678.9-591.8-960.9-108.3-77.6-233.5-151.2-378.3-218.8-1488.8-697.7-2282.9-406.8-2573.9-231.5-382.2-300.1-1646.6-1093.1-2664.2 574.6-108-476.7-312.2-857.2-565-1148.8-441.3-508.6-1032.8-746.6-1527.6-755.1-1449.1-25.6-2127.8 697.2-2982.6 1613.5-526.1-1468.6-1229.4-1743.3-1893.1-1537.2-745.6 231.4-1401.2 1110.9-1678.3 1487.6-63.5-74.4-133.4-166.8-207.9-265.3-333.7-441.6-751-993.8-1383.3-993.8-45.7 0-96.1 2.8-150.4 8.1-399.1 39.3-835.6 231.5-1170.6 521-344.9 297.7-588.4 700.5-588.4 1152.5 0 36.2 2.3 77 6.6 122 4.8 51.3 12.4 102.3 22.2 152.7-333.2 12.1-708.2 51.1-1031.8 146.7-268.7 79.2-506 198.5-665.6 374.2-173.29 190.7-253.91 437.5-187.63 755.3 36.08 174.3 118.63 370.3 257.03 590.3l40.5 45.4zm43.3 1510.4c-152.5-364.3-89.8-841.9 342.9-1443.6l99.9-139.1-542.9-427.1c-104.4-170.6-166.3-318.6-192.9-446.2-39.7-191 4.7-334.8 102.3-442.3 111.2-122.6 291.8-210.2 502.1-272.2 364.1-107.5 808.1-136.1 1162.7-137.4l251.3-1-82.8-236c-17.7-50.5-32.4-101.2-43.5-150.8-10.8-49.2-18.9-99.4-23.7-150-2.5-25.6-3.8-55.3-3.8-88.6 0-338 192.1-647.9 463.9-882.6 281.1-242.9 643.4-403.8 971.4-435.9 35.9-3.4 74.7-5.3 116.2-5.3 454.7 0 812.2 473 1098 851.2 141.8 187.6 268.2 354.8 399.9 459.2l113.2 89.5 111.2-92.3c34-28.2 78.1-88.4 144.4-178.4 249.5-339.4 863.9-1174.6 1507.6-1374.5 520.5-161.6 1090.8 132.1 1543.5 1589.4l90.9 293 407.9-435.6c798.3-854.9 1428.9-1530.6 2723-1507.7 405.3 7.1 893.7 206.1 1263.4 632.3 298.5 344.2 518.9 837.7 556.2 1499.5l341.2 63.7c1025.9-2259.7 2466.2-871.7 2470.2-867.9l123 117.6 123.1-116.8c1.7-1.6 589.6-606.3 2308.4 199 123.8 57.9 230.2 120.1 320.7 185.1 296.2 213 420.8 460.4 445.4 706.5 25.6 256.7-52.7 520.7-159.6 749.3-82.1 175.3-181.3 330.2-265.6 447.2l-99.8 139 541.9 426.6c970.1 1592.2-2198.5 1273.6-2207.5 1272.8l-175.9-17.5-19.1 176.2c-114.3 1055.8-2008.6 562.1-2014 560.8l-181 287.4c100.3 120.6 81.6 265.9-11.2 402-93.5 136.9-254.6 266.8-451.9 367.1-202.7 103.1-440.1 172.9-679.1 187.4-424.2 25.4-858-128.2-1110.1-593.7-22.2-54.9-47.9-109.7-77.8-164.5l-322.2 152.5c23.9 59.1 49.8 114.8 77.5 167.4 166.4 443.2 11.3 882-294.5 1214.5-227 247.4-534.7 437.2-858.1 532.4-314.7 92.4-642.6 94.1-919.5-31.9-404.8-184.1-711.4-652.7-727.5-1526l-325.7-97.1c-470.5 693.9-1064.1 1048.4-1638 1147.1-346 59.5-685 26.2-984.4-81-297.5-107.1-556.4-286.3-744.6-520.1-252.2-313.1-379.5-727.1-304.9-1197.5l-348-76.1c-143.5 508.3-406.6 751.9-680.3 823.9-116.6 30.8-237.5 31.1-352.4 7.9-117.5-23.4-227-70.1-319.2-132.8-179.8-122.2-295.9-302.5-269.4-478.9l-304.7-151.1c-240.7 246.3-1025.7 267.3-1751.5 53.7-279.4-81.8-546.9-200.5-767.6-355.6-211-148.7-378.2-330.9-468.6-546.1" fill="#100f0d"/>
  </g>
 </g>
</svg>
