<?xml version="1.0" encoding="UTF-8" standalone="no"?>
<!-- Created with Inkscape (http://www.inkscape.org/) -->

<svg
   width="511.98721"
   height="511.98721"
   version="1.1"
   viewBox="0 0 511.98721 511.98721"
   id="svg20"
   sodipodi:docname="icon-title.svg"
   inkscape:version="1.4.2 (ebf0e940d0, 2025-05-08)"
   xmlns:inkscape="http://www.inkscape.org/namespaces/inkscape"
   xmlns:sodipodi="http://sodipodi.sourceforge.net/DTD/sodipodi-0.dtd"
   xmlns="http://www.w3.org/2000/svg"
   xmlns:svg="http://www.w3.org/2000/svg">
  <defs
     id="defs20">
    <clipPath
       clipPathUnits="userSpaceOnUse"
       id="clipPath21">
      <circle
         style="font-variation-settings:'opsz' 32, 'wght' 700;fill:#2a7fff;stroke-linejoin:round"
         id="circle21"
         cx="84.345695"
         cy="314.14572"
         r="236.30769" />
    </clipPath>
  </defs>
  <sodipodi:namedview
     id="namedview20"
     pagecolor="#ffffff"
     bordercolor="#000000"
     borderopacity="0.25"
     inkscape:showpageshadow="2"
     inkscape:pageopacity="0.0"
     inkscape:pagecheckerboard="0"
     inkscape:deskcolor="#d1d1d1"
     inkscape:zoom="0.80792474"
     inkscape:cx="198.65712"
     inkscape:cy="186.27973"
     inkscape:window-width="1600"
     inkscape:window-height="828"
     inkscape:window-x="0"
     inkscape:window-y="0"
     inkscape:window-maximized="1"
     inkscape:current-layer="svg20" />
  <path
     d="M 511.9872,-4.0671365e-6 H -2.3999172e-7 V 511.9872 H 511.9872 V -4.0671365e-6"
     fill="#2a7fff"
     id="path1"
     style="fill-rule:evenodd;stroke-width:0.0127997" />
  <g
     id="g21"
     transform="matrix(0.56029478,0,0,0.56029478,208.73515,-17.76018)"
     clip-path="url(#clipPath21)">
    <path
       d="m 17.334993,192.25324 c -3.667108,3.14489 -9.1671305,10.6647 -14.1641256,22.02313 v -10e-4 c 0,0 -31.7867254,36.57509 -21.8029754,47.23466 2.910648,3.10905 5.352827,4.14326 7.523652,3.90007 -3.820704,7.66188 -5.661298,14.88602 -2.058188,18.73361 0.655343,0.70014 1.285088,1.29148 1.895632,1.78939 -7.457093,11.08325 -14.39964,24.56387 -8.964895,30.36724 2.847928,3.03993 5.247868,4.09718 7.382855,3.91415 -3.229359,6.99758 -25.261448,12.37857 -20.949236,16.98261 4.312212,4.60405 9.044254,4.45173 12.419529,1.16861 l 0.113917,0.6899 c -4.986755,8.88554 -7.628609,18.21267 -3.897502,22.19721 3.731107,3.98326 6.029929,4.39157 8.422189,3.72343 3.495593,19.46703 -14.272923,21.95913 -10.960366,42.66773 -2.291142,4.1151 -2.908087,8.32619 -1.428444,10.89509 1.480923,2.56889 2.518977,3.61591 3.787425,4.48244 l 0.536307,3.72343 c -4.177816,5.66335 -5.530742,12.69191 -4.156056,15.07802 1.375965,2.38638 0.958696,1.55056 1.438684,2.17403 -9.782796,9.09277 -18.669613,22.27656 -15.645049,27.52571 3.025844,5.24877 4.177816,5.18464 6.297443,5.49311 -4.738442,6.0778 -8.458157,10.35059 -5.052034,16.25944 3.405995,5.9082 8.831779,6.18647 13.434544,2.90194 -7.700288,8.00914 -19.19184,42.22358 -15.19706,49.15461 2.371781,4.11446 -0.910953,9.8066 -2.926263,12.95584 H 211.73372 c -0.7219,-3.22207 -1.46557,-6.4801 -2.23355,-9.77793 0.49535,-0.63699 -0.0704,0.46758 1.48349,-2.2315 1.55644,-2.69907 -0.76542,-11.10871 -6.17585,-17.66228 l -0.64894,-2.72287 c 3.30871,1.29059 6.93998,-0.11763 9.75719,-5.00609 2.81721,-4.88896 -0.31487,-10.18086 -5.05203,-16.25815 2.11963,-0.30796 3.2716,-0.24435 6.29744,-5.49324 3.02329,-5.24864 -5.86481,-18.43538 -15.64633,-27.52699 0.47871,-0.62552 -0.11775,0.52479 1.43869,-2.17441 1.55388,-2.6992 -0.80254,-11.18244 -6.26929,-17.77236 2.16699,-0.25906 3.3548,-0.16191 6.43696,-5.51141 3.08217,-5.34873 -6.21424,-18.83985 -16.15959,-28.00186 -0.0282,-16.61399 1.87515,-32.39727 4.31477,-48.00904 4.30837,4.76148 9.674,6.90671 14.87835,0.72702 5.20179,-6.17968 -24.57923,-28.45241 -30.74867,-37.69122 3.95254,4.0447 9.34248,4.72564 13.73789,-0.49278 4.39157,-5.21715 1.47964,-10.07847 -2.11195,-16.8943 2.14011,0.0691 3.26392,0.33535 7.16271,-4.29813 3.90262,-4.63477 -2.5241,-19.17777 -10.5559,-29.84886 0.58239,-0.53119 -0.20992,0.49407 1.79707,-1.88923 2.00827,-2.38202 1.17374,-11.1498 -3.0476,-18.59922 2.18235,0.128 1.51932,2.5881 7.3099,-4.29173 5.78801,-6.87855 -20.37325,-41.90615 -23.92004,-45.6475 -6.40496,-11.58755 -15.80761,-19.07152 -28.9772,-19.44143 l -71.323656,-2.01467 -46.140287,2.49594"
       fill="#fef3d8"
       id="path2"
       style="fill-rule:evenodd;stroke-width:0.0127997" />
    <path
       d="m -16.737755,364.98493 0.04736,0.28799 -0.02816,-0.29439 z M -0.4732015,558.28569 H -46.609648 c 2.014926,-3.14782 5.297403,-8.84061 2.926903,-12.95711 -3.995164,-6.93013 7.496772,-41.14457 15.19834,-49.15589 -4.604045,3.28836 -10.028549,3.00907 -13.435824,-2.90054 -3.404843,-5.90987 0.313592,-10.18227 5.053313,-16.25943 -2.123467,-0.30924 -3.275438,-0.24512 -6.298722,-5.49286 -3.025077,-5.24889 5.862253,-18.43538 15.643769,-27.52699 -0.478708,-0.62206 -0.06144,0.21363 -1.436124,-2.17479 -1.375966,-2.38676 -0.02048,-9.41327 4.154776,-15.07675 l -0.536307,-3.72342 c -1.268448,-0.86654 -2.306502,-1.91228 -3.789985,-4.48245 -1.479643,-2.57018 -0.858859,-6.77999 1.432284,-10.89509 -3.022004,-18.87825 11.478753,-22.62087 11.413475,-37.88321 1.401565,15.86904 21.8196143,47.61097 19.7166268,77.05535 C 1.3311694,476.2569 2.6656e-6,486.84095 2.6656e-6,512 c 0,10.8348 1.4847628344,28.8812 -0.4735881556,46.28493"
       fill="#fffcec"
       id="path3"
       style="fill-rule:evenodd;stroke-width:0.0127997" />
    <path
       d="m 211.73653,558.29274 c -0.7219,-3.22206 -1.4694,-6.48099 -2.23354,-9.77793 0.49919,-0.63819 -0.0704,0.46974 1.48348,-2.23149 1.55644,-2.69907 -0.76542,-11.10654 -6.17584,-17.661 l -0.64895,-2.72198 c 3.30872,1.28995 6.93999,-0.11968 9.7572,-5.00673 2.81337,-4.89037 -0.31487,-10.18227 -5.05204,-16.26199 2.11963,-0.30476 3.2716,-0.24191 6.29745,-5.49081 3.02328,-5.25068 -5.86482,-18.43665 -15.64633,-27.52443 0.48255,-0.62667 -0.11776,0.52287 1.43868,-2.17697 1.55388,-2.69817 -0.80254,-11.18244 -6.26928,-17.77363 2.16699,-0.25766 3.3548,-0.15846 6.43696,-5.50796 3.08216,-5.35219 -6.21041,-18.84369 -16.16344,-28.00442 -0.0243,-16.61526 1.87516,-32.39727 4.31861,-48.00904 4.30838,4.76148 9.674,6.90671 14.87451,0.72702 3.65175,-4.33397 -9.90311,-16.58198 -20.45645,-26.69885 l -18.81937,62.68259 -2.28858,29.77206 c 0,0 26.33406,47.52137 19.46704,70.42128 -7.4187,24.72642 -11.38788,40.35227 -13.17856,51.24352 h 42.85845"
       fill="#f5daae"
       id="path4"
       style="fill-rule:evenodd;stroke-width:0.0127997" />
    <path
       d="m 18.26937,194.49319 c -1.742037,1.63708 -3.891103,4.27381 -6.201445,7.86156 -2.2143447,3.44568 -4.5541262,7.74509 -6.7979101,12.84704 l -1.3554861,-0.28415 0.9894153,0.85374 c -0.085758,0.10111 -30.4312391,35.034 -21.8669731,44.17553 1.262048,1.34653 2.38458,2.22715 3.386795,2.72249 0.826859,0.40959 1.561561,0.54655 2.220745,0.47231 l 4.1726952,-0.45695 -1.8725931,3.75031 c -1.8124351,3.63383 -3.1525611,7.1307 -3.5967101,10.10663 -0.38655,2.57401 -0.104957,4.69492 1.154531,6.03889 0.295673,0.31487 0.584945,0.60926 0.866538,0.87293 0.293113,0.2752 0.563186,0.51455 0.8051003,0.71167 l 1.6191595,1.3158 -1.1634909,1.72412 c -4.0843779,6.07089 -8.0036399,12.85472 -9.6867979,18.55186 -1.143011,3.87958 -1.236449,7.13582 0.486388,8.98281 1.235169,1.30941 2.341061,2.18107 3.336877,2.68793 0.817899,0.41471 1.543641,0.56447 2.197705,0.50943 l 3.9115818,-0.32639 -1.6473188,3.56471 c -1.840594,3.9871 -7.853884,7.10382 -13.314227,9.93127 -3.178161,1.64732 -6.152806,3.18712 -7.532612,4.47733 -0.179195,0.17664 -0.673263,-0.12288 -0.513267,0.0499 l 0.203515,0.21375 c 1.663958,1.70364 3.321517,2.52666 4.834439,2.6137 1.429724,0.0794 2.81593,-0.50559 4.01142,-1.62428 l 3.260078,-3.10776 0.8115,4.95987 -0.257274,1.48605 c -2.533056,4.5106 -4.427409,9.11081 -5.101952,12.94943 -0.513267,2.92473 -0.321272,5.28499 0.872938,6.5624 1.60636,1.72412 2.840249,2.64825 3.873183,3.04504 0.791021,0.30463 1.519322,0.25728 2.274503,0.0474 l 2.41274,-0.67326 0.441589,2.47162 c 1.889233,10.51365 -1.832914,16.36695 -5.631859,22.33672 -3.390635,5.33106 -6.854229,10.77349 -5.316987,20.37197 l -0.258554,1.46812 c -1.016294,1.82652 -1.656278,3.64791 -1.870033,5.26707 -0.179196,1.37725 -0.05248,2.56122 0.41983,3.38296 0.657903,1.13789 1.205729,1.92635 1.715157,2.51257 0.451828,0.51711 0.895977,0.88446 1.384925,1.21981 l 0.831979,0.56703 0.679663,4.7218 -0.421109,1.67164 c -1.785556,2.42131 -3.005365,5.11385 -3.664549,7.50893 -0.664303,2.4066 -0.79102,4.32591 -0.354551,5.08211 0.79742,1.38442 0.720622,1.31415 0.751341,1.34282 0.116478,0.10764 0.250874,0.2318 0.513268,0.57189 l 1.278688,1.64911 -1.528282,1.41999 c -5.052034,4.69365 -9.846794,10.49574 -12.770241,15.63865 -2.282183,4.01834 -3.408555,7.42062 -2.453699,9.0801 2.328262,4.0397 3.094963,4.14786 4.354452,4.32462 l 4.197015,0.60005 -3.057844,3.90839 c -3.883423,4.96051 -6.732632,8.6033 -4.246934,12.91871 0.184316,0.3191 0.39295,0.64088 0.615665,0.95409 1.18781,1.66306 2.576575,2.56237 4.00502,2.8158 1.466843,0.26073 3.060403,-0.11673 4.604045,-1.00439 0.309752,-0.18355 0.615664,-0.38079 0.908777,-0.59032 l 2.970806,3.44452 c -3.764386,3.91606 -8.588586,14.79259 -11.842264,25.32033 -2.923447,9.45935 -4.597645,18.38546 -3.023285,21.11435 2.709693,4.70529 0.0026,10.41318 -2.215624,14.09373 h -5.409913 l 0.287993,-0.44403 c 1.643863,-2.52538 5.271676,-8.09695 3.382315,-11.37598 -2.259911,-3.92156 -0.633584,-14.22684 2.612543,-24.73026 2.365381,-7.64998 5.58962,-15.55289 8.754981,-21.16939 -0.609265,0.006 -1.21597,-0.0437 -1.817555,-0.15039 -2.582975,-0.45798 -4.996995,-1.95567 -6.938706,-4.6747 -0.281593,-0.39551 -0.565746,-0.83954 -0.849387,-1.33104 -3.624229,-6.28925 -1.014118,-10.7013 3.178929,-16.16472 -1.239009,-0.80075 -2.562496,-2.35463 -4.42549,-5.58642 -1.870801,-3.2483 -0.615792,-8.23403 2.436419,-13.60478 2.869689,-5.04922 7.367496,-10.64626 12.196815,-15.36729 l -0.426229,-0.73061 c -1.021414,-1.77544 -1.068773,-5.00839 -0.09088,-8.56286 0.723182,-2.63148 1.99803,-5.54354 3.832225,-8.22635 l -0.272634,-1.88284 c -0.469748,-0.38143 -0.929256,-0.81918 -1.402845,-1.36316 -0.695022,-0.79742 -1.410524,-1.8214 -2.234824,-3.24856 -0.991975,-1.72284 -1.299167,-3.89366 -0.991975,-6.24496 0.258554,-1.96604 0.952296,-4.0959 2.032589,-6.19761 -1.511642,-10.81061 2.328262,-16.85334 6.093928,-22.77063 3.032244,-4.7666 6.01073,-9.45128 5.282428,-16.93654 -0.81918,-0.0218 -1.669078,-0.18303 -2.580416,-0.53502 -1.643478,-0.63487 -3.431594,-1.91484 -5.552501,-4.17782 -2.300102,-2.44986 -2.810809,-6.16816 -2.054348,-10.47654 0.505587,-2.88248 1.58588,-6.08752 3.059123,-9.35272 -0.501747,0.0538 -1.009895,0.0666 -1.524442,0.0384 -2.636734,-0.14976 -5.355386,-1.41437 -7.878203,-4.00886 l -0.232954,-0.24064 c -2.131147,-2.2745 -1.537242,-4.41077 0.707822,-6.51375 1.876433,-1.74716 5.110913,-3.42264 8.566826,-5.21459 3.330477,-1.72412 6.892628,-3.57112 9.155611,-5.39891 l -0.285433,-0.13952 c -1.448923,-0.73598 -2.972085,-1.91867 -4.587405,-3.64023 -3.023284,-3.23831 -3.133362,-8.01003 -1.543641,-13.39614 1.679318,-5.68562 5.291387,-12.20322 9.18761,-18.16403 l -0.574706,-0.59518 c -2.341061,-2.4985 -2.941366,-5.91985 -2.352581,-9.8404 0.40319,-2.67513 1.367006,-5.60881 2.690493,-8.63082 -0.367351,-0.13056 -0.735982,-0.28799 -1.109732,-0.47231 -1.486043,-0.73598 -3.046324,-1.93147 -4.693643,-3.68887 -10.860528,-11.59651 18.597935,-46.62283 21.5124222,-50.02882 2.2988225,-5.18643 4.7090022,-9.59592 7.0027049,-13.1632 2.8120899,-4.37365 5.4949029,-7.53005 7.6324489,-9.36552 l 1.368286,-0.54527 c 42.994125,-2.32826 73.767116,-1.72027 117.644416,-0.48511 6.79408,0.192 12.66529,2.15675 17.69556,5.53331 5.29523,3.55319 9.62408,8.64618 13.09024,14.85402 2.74425,3.06297 13.94525,17.92852 20.36557,30.18037 4.10101,7.82956 6.26288,14.90395 3.42391,18.27282 -2.50618,2.97593 -4.12278,4.50933 -5.32979,5.21715 1.14174,2.69306 1.90588,5.41299 2.30395,7.86285 0.70782,4.31733 0.24703,8.05228 -1.23261,9.81095 l -0.55167,0.64383 c 3.93078,5.50642 7.3803,11.80386 9.31049,17.26676 2.05947,5.82514 2.4153,10.95525 0,13.82494 -2.40122,2.85433 -3.97686,4.14965 -5.33363,4.71924 3.16536,6.11697 4.95604,10.91685 0.28543,16.47063 -0.33791,0.41215 -0.70526,0.80638 -1.08157,1.17501 -2.04923,1.99931 -4.28021,3.05016 -6.53552,3.3036 1.98268,1.97499 4.23798,4.12533 6.556,6.33584 10.76965,10.26534 22.80903,21.74025 18.06547,27.37467 -0.53375,0.63487 -1.07901,1.19933 -1.623,1.69468 -2.51002,2.27066 -5.09299,3.1052 -7.63885,2.90681 -2.02107,-0.15872 -3.94742,-0.98942 -5.74194,-2.27067 -0.95357,6.38193 -1.79451,12.80608 -2.42938,19.31728 -0.73982,7.59021 -1.19805,15.29434 -1.22236,23.1687 5.20179,4.9138 10.16934,10.93733 13.29374,16.35159 3.14104,5.4391 4.46069,10.49331 2.56506,13.78526 -1.92635,3.34212 -3.2908,4.91444 -4.57589,5.70264 1.71772,2.5616 3.02585,5.24198 3.89623,7.70272 1.45532,4.12687 1.65755,7.88588 0.51198,9.87777 l -0.42879,0.73201 c 4.83188,4.72014 9.32713,10.31603 12.19682,15.36346 3.05528,5.37292 4.30837,10.35584 2.4409,13.60606 -1.89307,3.2762 -3.22552,4.82714 -4.47861,5.61893 1.591,2.23034 2.89401,4.38735 3.69655,6.50774 1.25949,3.31729 1.32988,6.50109 -0.46847,9.62613 -1.58844,2.75833 -3.46615,4.60558 -5.45522,5.62687 -0.91518,0.46846 -1.847,0.7667 -2.77881,0.90007 2.1849,2.95135 3.81558,6.15332 4.82675,9.05181 1.43229,4.09948 1.62428,7.83046 0.47487,9.81978 -0.42495,0.73579 -0.73982,1.25817 -0.98429,1.63593 l 1.40028,6.12682 0.69758,3.10072 h -4.68468 l -0.46719,-2.0994 -1.89179,-8.22879 0.66686,-0.85513 c 0.38399,-0.49409 0.63487,-0.65538 0.84734,-0.78558 0.20992,-0.13555 -0.32767,0.19735 0.46463,-1.17566 0.49279,-0.86373 0.16768,-3.15832 -0.83838,-6.0348 -1.00861,-2.89119 -2.74297,-6.15203 -5.12371,-9.03286 l -0.46847,-0.92926 -1.65756,-6.96174 4.06006,1.58217 c 1.10589,0.4293 2.26811,0.3941 3.38168,-0.17574 1.22621,-0.63013 2.45114,-1.88194 3.57495,-3.83709 1.01629,-1.76546 0.93181,-3.67773 0.14719,-5.74437 -0.92541,-2.43488 -2.77881,-5.10118 -5.01619,-7.97663 l -2.43066,-3.11711 4.19318,-0.59057 c 1.25692,-0.17523 2.02491,-0.28211 4.35701,-4.32489 0.95229,-1.65922 -0.17152,-5.06253 -2.45754,-9.0792 -2.92217,-5.14278 -7.71949,-10.94385 -12.77024,-15.63608 l -1.52572,-1.41616 1.27484,-1.65295 c 0.43647,-0.56831 0.71807,-0.72434 0.95998,-0.85144 0.27135,-0.15321 -0.43647,0.2304 0.30719,-1.06608 0.49535,-0.85387 0.15616,-3.17253 -0.8691,-6.08215 -1.03037,-2.92166 -2.78265,-6.20375 -5.18387,-9.09661 l -2.69561,-3.25112 4.48245,-0.50994 c 1.28509,-0.1477 2.06971,-0.23781 4.43381,-4.34203 0.97661,-1.69199 -0.20352,-5.15712 -2.5625,-9.24188 -3.03352,-5.25683 -8.00492,-11.19051 -13.16831,-15.94584 l -0.73214,-0.67327 v -1.00733 c -0.0141,-8.39275 0.45695,-16.56407 1.23901,-24.59587 0.78206,-8.01132 1.87387,-15.90744 3.10264,-23.7626 l 0.7411,-4.72565 3.20376,3.54552 c 0.56575,0.62718 1.14941,1.19933 1.74588,1.69851 1.39644,1.17757 2.85177,1.95196 4.28277,2.06459 1.32989,0.10368 2.74809,-0.39423 4.22134,-1.72539 0.39039,-0.35584 0.7923,-0.77183 1.19293,-1.24925 1.97627,-2.34618 -8.42347,-12.2621 -17.72628,-21.12844 -5.59986,-5.33874 -10.84133,-10.33574 -13.17215,-13.82493 l 3.53399,-2.86201 c 0.24959,0.25344 0.51711,0.50175 0.79358,0.73598 1.36061,1.14941 2.85817,1.8022 4.33781,1.80348 1.45277,0 2.97721,-0.64255 4.44789,-2.07611 0.24447,-0.24063 0.50559,-0.51967 0.76798,-0.83198 3.2076,-3.8015 1.04318,-7.891 -1.90587,-13.4627 l -2.3257,-4.39157 4.23157,0.15487 c 1.27741,0.0486 2.05563,0.0768 5.05844,-3.49303 1.23132,-1.463 0.71806,-5.00979 -0.8243,-9.36936 -1.97627,-5.5909 -5.67282,-12.14306 -9.81352,-17.64308 l -1.24541,-1.65628 1.53212,-1.40157 c 0.54783,-0.50046 0.8627,-0.60286 1.12766,-0.68478 0.23679,-0.0794 -0.46847,0.12544 0.46462,-0.98046 0.63487,-0.75646 0.71551,-3.09752 0.21632,-6.14128 -0.49919,-3.05401 -1.65116,-6.5944 -3.50455,-9.86344 l -2.06843,-3.64918 4.18037,0.24063 c 0.89342,0.0512 1.44125,0.28415 1.92252,0.48767 0.0806,0.0346 0.12927,0.055 3.51223,-3.96534 1.36188,-1.61788 -0.68095,-6.93615 -3.97558,-13.22719 -6.40496,-12.22242 -17.63796,-27.04573 -19.85231,-29.38039 l -0.34815,-0.47359 c -3.14872,-5.69969 -7.03854,-10.33574 -11.75266,-13.5011 -4.33142,-2.90425 -9.40009,-4.5938 -15.28154,-4.75892 l -71.205904,-2.01083 -45.267348,2.4473"
       fill="#100f0d"
       id="path5"
       style="stroke-width:0.0127997" />
    <path
       d="m 45.302294,175.83125 c 0,0 -19.656468,-7.1115 -23.886763,-21.12715 -4.230294,-14.01309 -10.939886,-24.00068 -19.907342,-15.84472 -8.9661759,8.15084 -22.771911,30.94579 -15.769206,50.37954 7.0014252,19.43759 38.032969,22.55432 38.032969,22.55432 l 17.62644,-14.27677 3.903902,-21.68522"
       fill="#df9845"
       fill-rule="evenodd"
       id="path6"
       style="stroke-width:0.0127997" />
    <path
       d="m 43.126348,177.04722 c -4.835719,-2.04922 -19.794705,-9.28488 -23.56805,-21.77609 -1.899473,-6.30768 -4.290453,-11.72195 -7.119182,-14.83611 -0.981736,-1.08157 -2.00571,-1.86363 -3.052724,-2.2617 -0.9433364,-0.35967 -1.9493913,-0.40831 -3.0143246,-0.0909 -1.1033325,0.33535 -2.2949827,1.05469 -3.5685508,2.21306 -4.999555,4.54517 -11.5734707,13.85182 -14.9205866,24.54851 -2.39994,7.67213 -3.118002,16.02648 -0.334072,23.75493 5.956971,16.5359 30.881788,20.5678 35.641989,21.19115 L 39.624356,196.4784 Z m -19.865103,-22.8935 c 3.953821,13.08767 22.645194,19.85358 22.698953,19.87406 l 1.527001,0.55935 -4.194455,23.27621 -0.679663,1.15582 -18.262583,14.79515 -0.79486,-0.0896 c -0.09088,-0.0102 -32.2180748,-3.23192 -39.635489,-23.82405 -3.107763,-8.62954 -2.348742,-17.82355 0.275193,-26.20606 3.565991,-11.39684 10.6275741,-21.36011 16.00855957,-26.25855 1.72411693,-1.56668 3.41239473,-2.56249 5.05075373,-3.05784 1.9340316,-0.57598 3.7695058,-0.48127 5.5077027,0.18176 1.635799,0.62078 3.147441,1.74843 4.533646,3.27415 3.252399,3.5788 5.909613,9.51273 7.965241,16.3196"
       fill="#100f0d"
       id="path7"
       style="stroke-width:0.0127997" />
    <path
       d="m 34.230571,180.87433 c 0,0 -12.983996,-2.04155 -17.270608,-10.18599 -4.285333,-8.14443 -9.6202398,-13.50622 -14.1807658,-7.40077 -4.560526,6.10289 -10.3575011,21.82217 -3.71318718,32.98221 6.64431388,11.16388 26.17278598,9.37705 26.17278598,9.37705 l 9.17353,-10.91941 -0.181755,-13.85309"
       fill="#af5a1e"
       fill-rule="evenodd"
       id="path8"
       style="stroke-width:0.0127997" />
    <path
       d="m 125.74828,178.58319 c 0,0 20.0955,-5.75602 25.27169,-19.44784 5.17363,-13.69438 12.54881,-23.19942 20.94028,-14.45468 8.38891,8.74346 20.61132,32.42671 12.29921,51.33952 -8.30699,18.91537 -39.47933,19.9099 -39.47933,19.9099 L 128.16614,200.486 125.74828,178.58319"
       fill="#df9845"
       fill-rule="evenodd"
       id="path9"
       style="stroke-width:0.0127997" />
    <path
       d="m 125.2363,176.72723 c 0.055,-0.0141 19.15216,-5.48466 23.9866,-18.2677 2.51385,-6.65711 5.57042,-12.40033 9.06089,-15.74745 1.4822,-1.42076 3.06808,-2.4409 4.74868,-2.95416 1.78044,-0.54015 3.61591,-0.51327 5.49362,0.19583 1.60764,0.60799 3.22168,1.71388 4.83188,3.38936 5.0354,5.25043 11.40324,15.67449 14.18461,27.28891 2.04539,8.54507 2.1785,17.77492 -1.5078,26.16383 -8.79722,20.03534 -41.0857,21.06187 -41.17785,21.06571 l -0.79998,0.0294 -17.19765,-15.98808 -0.60415,-1.20445 -2.59833,-23.52453 z m 27.59995,-16.90965 c -4.61173,12.19681 -20.00462,18.39954 -24.98754,20.12109 l 2.16699,19.62191 15.49401,14.40604 c 4.77812,-0.29439 29.91669,-2.60985 36.98851,-18.71313 3.31,-7.53005 3.16664,-15.91512 1.29533,-23.73189 -2.61113,-10.89125 -8.53738,-20.62412 -13.21823,-25.5008 -1.19677,-1.24925 -2.33466,-2.04923 -3.40855,-2.4537 -1.04446,-0.39423 -2.05051,-0.41215 -3.01561,-0.11904 -1.06365,0.32512 -2.1337,1.03038 -3.19096,2.04539 -3.0412,2.91577 -5.79697,8.16236 -8.12395,14.32413"
       fill="#100f0d"
       id="path10"
       style="stroke-width:0.0127997" />
    <path
       d="m 136.44882,184.35584 c 0,0 13.09279,-1.14813 17.92467,-8.98153 4.8306,-7.83341 10.51877,-12.82272 14.65179,-6.42288 4.1343,6.4024 8.84714,22.48135 1.45788,33.16269 -7.38925,10.68261 -26.75005,7.57101 -26.75005,7.57101 l -8.40811,-11.52227 1.12382,-13.80702"
       fill="#af5a1e"
       fill-rule="evenodd"
       id="path11"
       style="stroke-width:0.0127997" />
    <path
       d="m 85.723684,303.93045 c 24.839056,1.00222 44.531366,12.94944 43.558586,37.40963 -0.97149,24.46147 -22.24072,52.17533 -47.078498,51.17312 -24.839059,-1.0035 -43.840184,-30.3442 -42.867409,-54.80567 0.971496,-24.46147 21.549541,-34.78057 46.387321,-33.77708"
       fill="#df9845"
       fill-rule="evenodd"
       id="path12"
       style="stroke-width:0.0127997" />
    <path
       d="m 14.455065,288.72443 c 1.006055,-2.81593 2.595775,-5.03667 4.540047,-6.69423 2.152906,-1.83547 4.739721,-2.97849 7.448134,-3.47895 1.255648,-0.2304 2.549696,-0.32128 3.843743,-0.27648 1.305568,0.0435 2.606015,0.22656 3.865504,0.54015 1.282528,0.31871 2.533057,0.77694 3.711907,1.36445 1.159651,0.57854 2.256584,1.28508 3.251119,2.11066 1.967311,1.63068 3.553191,3.72087 4.515727,6.22321 0.863978,2.25018 1.218529,4.8242 0.895977,7.68365 0.04608,0.95101 -0.632304,1.70875 -1.520602,2.07994 -0.39551,0.16256 -0.842218,0.256 -1.277408,0.25088 -0.478708,-0.006 -0.958696,-0.12288 -1.367005,-0.37887 -0.752622,-0.47231 -1.242849,-1.32605 -1.077733,-2.66234 0.230394,-1.95451 0.0051,-3.68758 -0.556787,-5.17747 -0.610544,-1.61916 -1.625559,-2.96696 -2.887607,-4.0127 -0.671984,-0.5555 -1.416925,-1.03421 -2.207945,-1.42716 -0.8115,-0.40319 -1.679318,-0.72062 -2.572736,-0.94206 -0.904937,-0.22527 -1.835474,-0.35583 -2.760891,-0.38783 -0.911337,-0.032 -1.836754,0.0371 -2.742971,0.20224 -1.849554,0.34047 -3.60823,1.11613 -5.063554,2.3577 -1.324767,1.12765 -2.410179,2.65081 -3.093682,4.59252 l -0.01792,0.0486 c -0.624624,1.49756 -1.718997,2.25787 -2.719932,2.39354 -0.450549,0.0602 -0.890858,0.001 -1.283808,-0.17023 -0.413429,-0.1792 -0.77054,-0.47743 -1.020134,-0.88318 -0.479988,-0.77438 -0.573426,-1.93787 0.09856,-3.35608 z m 140.950075,-3.81174 c 1.94555,1.79323 3.53655,4.12533 4.54133,7.01166 0.6707,1.46429 0.57854,2.62394 0.096,3.36376 -0.25344,0.38655 -0.60671,0.66046 -1.01886,0.8115 -0.39295,0.14335 -0.83198,0.17023 -1.27997,0.0806 -1.00477,-0.20608 -2.09914,-1.04318 -2.72249,-2.58426 l -0.0192,-0.0499 c -0.68478,-1.99035 -1.76763,-3.58775 -3.0924,-4.80884 -1.4566,-1.3414 -3.21528,-2.24122 -5.06483,-2.71097 -0.90622,-0.22783 -1.83036,-0.36095 -2.7417,-0.39295 -0.92541,-0.032 -1.85723,0.0346 -2.76217,0.19455 -0.89213,0.16128 -1.76123,0.41727 -2.57273,0.76543 -0.79102,0.33535 -1.53596,0.76286 -2.20667,1.271 -1.26205,0.95742 -2.27706,2.23483 -2.88761,3.81175 -0.56318,1.45148 -0.78718,3.1692 -0.55806,5.13907 0.16639,1.34781 -0.32255,2.16827 -1.07645,2.58554 -0.40703,0.22783 -0.8883,0.31231 -1.36701,0.28415 -0.43647,-0.0243 -0.8819,-0.14848 -1.27357,-0.33919 -0.89342,-0.43263 -1.5718,-1.23901 -1.52572,-2.18619 -0.32383,-2.88249 0.032,-5.4309 0.89598,-7.62093 0.96253,-2.4345 2.54969,-4.41461 4.51572,-5.90961 0.99582,-0.7539 2.09275,-1.38621 3.2524,-1.88283 1.17885,-0.50431 2.4281,-0.87678 3.71191,-1.1059 1.25565,-0.22527 2.55994,-0.31743 3.86294,-0.27007 1.29661,0.0461 2.59066,0.22528 3.84631,0.54399 2.70841,0.68862 5.29523,2.01339 7.44685,3.99862"
       fill="#100f0d"
       id="path13"
       style="stroke-width:0.0127997" />
    <path
       d="m 19.677335,303.81526 c 6.330721,0.22143 11.462113,4.08437 11.462113,8.63082 0,4.54517 -5.131392,8.051 -11.462113,7.83084 -6.330722,-0.22143 -11.4621137,-4.08437 -11.4621137,-8.63082 0,-4.54645 5.1313917,-8.051 11.4621137,-7.83084 z m 131.491115,4.58612 c 6.33072,0.22015 11.46211,4.08438 11.46211,8.63082 0,4.54517 -5.13139,8.051 -11.46211,7.82957 -6.33072,-0.22016 -11.46212,-4.08438 -11.46212,-8.63083 0,-4.54516 5.1314,-8.05099 11.46212,-7.82956"
       fill="#fbcbbb"
       id="path14"
       style="fill-rule:evenodd;stroke-width:0.0127997" />
    <path
       d="m 66.588162,328.92823 c -6.113127,10.20646 14.929547,11.09604 17.159251,12.88416 -1.509082,16.24919 -13.650859,14.17564 -26.364781,10.60069 2.586815,3.06424 5.830254,5.19155 9.231129,6.27568 3.253679,1.04062 6.669914,1.13277 9.817355,0.19328 3.170481,-0.9459 6.046569,-2.92345 8.186675,-6.01201 0.647664,-0.93438 1.22621,-1.97115 1.727957,-3.11288 0.501747,1.17501 1.079013,2.25402 1.726677,3.2332 2.140106,3.23831 5.017474,5.41682 8.186675,6.58287 3.147441,1.15965 6.5624,1.30429 9.81735,0.49279 3.40216,-0.84862 6.64432,-2.74937 9.23113,-5.63442 -12.66016,2.67769 -24.752017,3.9039 -26.344297,-12.23137 6.715992,-2.56378 24.108197,-6.79407 14.144927,-12.63329 -4.45813,-2.61369 -12.634565,9.97095 -16.749662,9.73288 -5.420665,-0.31103 -17.22069,-14.63132 -19.770386,-10.37158"
       fill="#100f0d"
       id="path15"
       style="fill-rule:evenodd;stroke-width:0.0127997" />
    <path
       d="m -34.478111,214.1919 c -22.842309,-31.77137 28.6725628,-41.1305 37.343066,-32.26416 -1.4566035,-9.72135 19.350556,-18.91024 25.21537,1.86492 -3.937182,-24.81346 31.629289,-38.73952 51.139841,-9.97735 0.783341,-42.09687 52.030704,-18.05523 39.246374,5.45906 9.03658,-22.24713 42.25175,-5.33363 33.58125,5.09043 0,0 26.86012,-7.01294 28.6124,9.15305 0,0 45.77294,-4.60404 30.21364,20.1147 l -5.5397,4.35701 c 4.68213,6.51248 12.8048,21.66986 -5.25043,30.13045 -23.43877,10.97956 -32.09263,2.13626 -32.09263,2.13626 0,0 -20.80588,20.05198 -35.27208,-11.81922 -1.15965,20.40653 -15.19578,29.26391 -25.53792,29.44566 -18.960169,0.33664 -27.214683,-10.12966 -39.092786,-22.73351 -15.17402,48.85766 -42.616534,3.15 -44.539046,1.54876 -4.729482,3.74647 -10.596855,17.27317 -20.5870054,17.27317 -9.9914302,0 -23.1943006,-9.21705 -22.0858476,-20.58316 0.145916,-1.50397 0.482548,-2.97081 0.979175,-4.38517 -12.40289,-0.0486 -33.097412,-2.61882 -21.873373,-20.45389 l 5.539702,-4.35701"
       fill="#fef3d8"
       id="path16"
       style="fill-rule:evenodd;stroke-width:0.0127997" />
    <path
       d="m -38.855602,206.30729 c -9.695118,-25.39328 33.8167546,-32.46127 41.723117,-24.37699 -1.3350066,-8.91881 16.058479,-17.38068 23.473333,-2.68793 -19.0433638,4.91124 -34.1841052,15.24186 -41.833194,21.46506 -3.60311,2.93241 -12.520647,4.64373 -23.363256,5.59986 z M 27.817931,178.8763 c 1.121252,-21.59562 33.227969,-31.85456 51.404795,-5.05459 0.78334,-42.10071 52.030704,-18.05907 39.246374,5.45522 9.03786,-22.24713 42.25175,-5.33363 33.58253,5.09043 0,0 26.85884,-7.01294 28.61112,9.15305 0,0 43.58035,-4.38133 31.22354,18.38034 -14.17693,-3.21272 -35.72647,0.45439 -51.9027,-10.22182 -23.03431,-15.19962 -16.30808,-20.43597 -39.20926,-17.00438 -22.90247,3.43544 -22.90247,-8.01516 -33.207493,-8.01516 -10.305022,0 14.934663,11.24708 -21.706977,2.08379 -13.538221,-3.38295 -26.476138,-2.64569 -38.041929,0.13312"
       fill="#fffcf4"
       id="path17"
       style="fill-rule:evenodd;stroke-width:0.0127997" />
    <path
       d="m 125.77388,225.22522 c 22.90247,3.43415 30.36212,22.71687 53.39771,7.51597 12.75616,-8.41963 24.5101,-15.44025 33.81675,-23.14054 -0.51327,1.24925 -1.20445,2.58554 -2.10939,4.02806 l -5.5397,4.35701 c 4.68213,6.50992 12.8048,21.66986 -5.25299,30.12917 -23.43621,10.98084 -32.09007,2.13498 -32.09007,2.13498 0,0 -20.80588,20.05326 -35.27208,-11.81666 -1.15965,20.40525 -15.19578,29.26263 -25.53792,29.44566 -16.741984,0.29696 -25.134735,-7.827 -35.046807,-18.41106 31.323377,-13.08767 53.634497,-24.24259 53.634497,-24.24259 z m -60.222492,26.96765 c -8.162356,19.49391 -18.869288,17.35508 -27.441234,10.73765 9.554961,-3.55575 18.78481,-7.19214 27.441234,-10.73765"
       fill="#f5daae"
       id="path18"
       style="fill-rule:evenodd;stroke-width:0.0127997" />
    <path
       d="m -37.562834,213.70551 c -5.474423,-8.40299 -6.035049,-15.43002 -3.667109,-21.08619 1.518042,-3.61975 4.220055,-6.60464 7.588931,-8.97514 3.247279,-2.28602 7.135821,-4.01398 11.166441,-5.19795 8.502827,-2.4985 17.8440334,-2.52666 23.43109375,-0.33151 0.80381995,-2.52666 2.64569385,-4.7922 5.06739335,-6.43696 1.6921177,-1.14813 3.6671083,-2.00059 5.7470559,-2.4153 2.105548,-0.42239 4.357011,-0.40831 6.570076,0.17407 2.80185,0.73727 5.512822,2.37435 7.766846,5.18132 0.80894,-3.51608 2.39866,-6.68272 4.574606,-9.38089 2.949046,-3.66199 6.963026,-6.45744 11.550431,-8.09836 4.563086,-1.62684 9.695757,-2.13626 14.907787,-1.23901 7.007825,1.20445 14.174366,4.93556 20.292613,11.86915 1.445084,-9.53833 5.899372,-15.07803 11.505632,-17.62644 4.593805,-2.08763 9.909512,-2.09787 14.937227,-0.61695 4.92148,1.44509 9.6036,4.33525 13.05951,8.09836 3.1756,3.45591 5.34515,7.63757 5.7957,12.13026 3.87318,-2.92857 8.57834,-3.94102 13.21439,-3.66199 3.72086,0.22399 7.38797,1.30301 10.50086,2.88377 3.18456,1.62044 5.85201,3.80918 7.48397,6.204 1.33756,1.96091 2.02491,4.04214 1.84571,6.10161 7.79117,-1.24669 23.75109,-2.22715 26.76797,9.79559 9.35913,-0.58622 46.10061,-1.39644 30.26613,23.76389 l -0.51711,0.58238 -3.86422,3.04121 c 0.87549,1.35677 1.78683,2.92857 2.59065,4.64372 1.66396,3.55831 2.87609,7.73997 2.44986,11.97026 -0.43647,4.36597 -2.55866,8.68971 -7.57485,12.29922 -1.38621,0.99325 -2.98873,1.93531 -4.84212,2.80057 -19.05616,8.93033 -29.22039,5.20691 -32.9451,2.96312 -4.89203,3.84119 -21.07595,13.99133 -34.1009,-7.35469 -1.38237,6.1016 -3.99606,10.97188 -7.23182,14.70427 -5.6485,6.50992 -13.21951,9.55624 -19.55279,9.66504 -18.54802,0.32767 -27.235163,-8.92394 -38.17633,-20.65229 -6.733911,18.79761 -15.735926,22.31369 -24.231074,19.67567 -9.543441,-2.96184 -17.934911,-14.21916 -21.481703,-19.0408 -0.812779,0.95229 -1.707477,2.13498 -2.661053,3.39575 -4.271253,5.65234 -9.61256,12.72032 -17.7057975,12.72032 -0.5849454,0 -1.2300492,-0.0358 -1.9250719,-0.10367 -5.1083522,-0.50303 -10.6954126,-2.96313 -14.9833056,-6.66864 -4.414609,-3.81046 -7.531331,-8.96617 -7.531331,-14.75163 0,-0.46335 0.02944,-0.98557 0.08448,-1.56156 0.06144,-0.65662 0.158716,-1.30941 0.284153,-1.95451 -4.264853,-0.15488 -9.064733,-0.65406 -13.20671,-1.87771 -3.439274,-1.01374 -6.476638,-2.54074 -8.519467,-4.78964 -2.218056,-2.4409 -3.249966,-5.59986 -2.401603,-9.6676 0.461812,-2.23099 1.518426,-4.73972 3.289901,-7.55565 l 0.518387,-0.58111 z m 0.554226,-19.33264 c -1.951951,4.66292 -1.149411,10.77605 4.38901,18.47762 l 1.278688,1.78043 -6.948946,5.46675 c -1.336287,2.18362 -2.128587,4.07798 -2.469058,5.71122 -0.508148,2.44473 0.06016,4.28533 1.309407,5.66129 1.423324,1.56924 3.734947,2.6905 6.426719,3.48408 4.660364,1.37596 10.343422,1.74203 14.882188,1.75867 l 3.21656,0.0128 -1.059814,3.02073 c -0.226554,0.64638 -0.414709,1.29532 -0.556786,1.93019 -0.138236,0.62974 -0.241914,1.27229 -0.303352,1.91995 -0.032,0.32767 -0.04864,0.70782 -0.04864,1.13405 0,4.32629 2.458819,8.29291 5.937772,11.297 3.5979896,3.10904 8.2353137,5.16851 12.4336087,5.57938 0.4595085,0.0435 0.9561361,0.0678 1.4873228,0.0678 5.8200145,0 10.3959005,-6.05425 14.0540485,-10.89509 1.814995,-2.40122 3.432874,-4.54133 5.118592,-5.87761 l 1.448924,-1.14557 1.423324,1.18141 c 0.435189,0.36095 0.999655,1.13149 1.848274,2.28346 3.19352,4.34421 11.057644,15.0345 19.296798,17.59316 6.662233,2.06843 13.961891,-1.69084 19.756306,-20.34381 l 1.163491,-3.75031 5.220989,5.57554 c 10.217985,10.94245 18.289463,19.59119 34.853532,19.29808 5.18771,-0.0909 11.43907,-2.63801 16.17111,-8.09324 3.82071,-4.40565 6.64176,-10.72229 7.11919,-19.19312 l 4.36725,-0.81534 c 13.13119,28.92344 31.56657,11.15748 31.61777,11.10885 l 1.57436,-1.50525 1.57564,1.49501 c 0.0218,0.0205 7.54669,7.76044 29.54678,-2.54714 1.5846,-0.7411 2.94648,-1.53724 4.10486,-2.36922 3.79126,-2.72633 5.3861,-5.89297 5.70097,-9.04298 0.32768,-3.28567 -0.67454,-6.66479 -2.04283,-9.5908 -1.05085,-2.24378 -2.32058,-4.22645 -3.39959,-5.72401 l -1.27741,-1.77916 6.93615,-5.46034 c 12.41697,-20.37965 -28.1401,-16.30167 -28.2553,-16.29143 l -2.25146,0.22399 -0.24447,-2.2553 c -1.46301,-13.51391 -25.70944,-7.1947 -25.77856,-7.17806 l -2.31674,-3.67863 c 1.28381,-1.54364 1.04445,-3.40344 -0.14336,-5.14547 -1.19677,-1.75228 -3.2588,-3.41496 -5.78417,-4.69877 -2.5945,-1.31964 -5.63314,-2.21306 -8.69227,-2.39866 -5.42962,-0.32511 -10.98212,1.64092 -14.20892,7.59917 -0.28415,0.70271 -0.6131,1.40413 -0.99582,2.10555 l -4.12405,-1.95195 c 0.30591,-0.75646 0.63742,-1.4694 0.99197,-2.14267 2.12987,-5.67281 0.14464,-11.28931 -3.7695,-15.54521 -2.90553,-3.16664 -6.84399,-5.59602 -10.98341,-6.81455 -4.028058,-1.18269 -8.225073,-1.20445 -11.769305,0.40831 -5.18131,2.35642 -9.105692,8.35435 -9.311767,19.53231 l -4.168856,1.24285 c -6.022249,-8.88169 -13.620139,-13.41918 -20.965876,-14.68251 -4.428689,-0.76158 -8.76778,-0.33535 -12.600005,1.03677 -3.807904,1.37085 -7.121742,3.66455 -9.530641,6.65712 -3.22808,4.00758 -4.857479,9.30665 -3.902623,15.32761 l -4.454288,0.97406 c -1.836755,-6.50608 -5.20435,-9.62408 -8.707623,-10.54566 -1.492442,-0.39423 -3.039924,-0.39807 -4.510607,-0.10111 -1.503962,0.29951 -2.9055274,0.89725 -4.0856579,1.69979 -2.3013824,1.56413 -3.7874253,3.87191 -3.4482338,6.12977 l -3.9000625,1.93403 c -3.0808829,-3.15256 -13.1286318,-3.42135 -22.4186398,-0.68734 -3.57623,1.04701 -7.000145,2.56634 -9.825034,4.55157 -2.700733,1.90331 -4.840839,4.23541 -5.99793,6.9899"
       fill="#100f0d"
       id="path19"
       style="stroke-width:0.0127997" />
  </g>
  <text
     xml:space="preserve"
     style="font-style:normal;font-variant:normal;font-weight:normal;font-stretch:normal;font-size:64px;font-family:Boldonse;-inkscape-font-specification:'Boldonse, @opsz=32,wght=700';font-variant-ligatures:normal;font-variant-caps:normal;font-variant-numeric:normal;font-variant-east-asian:normal;font-variation-settings:'opsz' 32, 'wght' 700;text-align:start;writing-mode:lr-tb;direction:ltr;text-anchor:start;fill:#ffffff;stroke-linejoin:round"
     x="142.90572"
     y="390.68478"
     id="text20"><tspan
       sodipodi:role="line"
       id="tspan20"
       x="142.90572"
       y="390.68478">Packs</tspan></text>
  <text
     xml:space="preserve"
     style="font-style:normal;font-variant:normal;font-weight:normal;font-stretch:normal;font-size:24px;font-family:Boldonse;-inkscape-font-specification:'Boldonse, Normal';font-variant-ligatures:normal;font-variant-caps:normal;font-variant-numeric:normal;font-variant-east-asian:normal;text-align:start;writing-mode:lr-tb;direction:ltr;text-anchor:start;fill:#ffffff;stroke-linejoin:round"
     x="141.92162"
     y="436.39362"
     id="text21"><tspan
       sodipodi:role="line"
       id="tspan21"
       x="141.92162"
       y="436.39362">by Surefoot HQ</tspan></text>
</svg>
